<?xml version="1.0" encoding="utf-8"?>
<!-- Generator: Adobe Illustrator 21.1.0, SVG Export Plug-In . SVG Version: 6.00 Build 0)  -->
<svg version="1.1" id="Calque_1" xmlns:sketch="http://www.bohemiancoding.com/sketch/ns"
	 xmlns="http://www.w3.org/2000/svg" xmlns:xlink="http://www.w3.org/1999/xlink" x="0px" y="0px" viewBox="0 0 109 133"
	 style="enable-background:new 0 0 109 133;" xml:space="preserve">
<style type="text/css">
	.st0{fill:#FFFFFF;}
</style>
<title>Imported Layers</title>
<desc>Created with Sketch.</desc>
<g id="Imported-Layers" sketch:type="MSLayerGroup">
	<g id="XMLID_1_">
		<g>
			<path class="st0" d="M109,37.6c0,11-7.4,20.2-17.4,23c-1.6,6.5-7.5,11.3-14.5,11.3c-0.2,0-0.5,0-0.8,0L70,87.5l-9.4,23.4
				c-2.1-0.7-3.5-2.2-5.5-3.1c0-0.1,0.1-0.2,0.1-0.3l5.6-21.8c0.1-0.5,0.4-2.8-0.2-2.8c-0.6-0.1-1.3,2.2-1.4,2.6l-4.5,21.8
				c0,0.1,0,0.1,0,0.2c-1.4-0.5-3.1-0.7-5.4-0.2c-0.8,0.1-1.4,0.4-2.1,0.7l-7.8-20.2l-6.1-15.9c-0.2,0-0.3,0-0.5,0
				c-7,0-12.9-4.8-14.5-11.3c-10-2.8-17.4-12.1-17.4-23c0-13.2,10.7-23.9,23.9-23.9c1.7,0,3.4,0.2,5,0.5C35,5.7,44.4,0,55.2,0
				c10.7,0,20.1,5.6,25.4,14.1c1.4-0.3,2.9-0.4,4.4-0.4C98.3,13.7,109,24.4,109,37.6z M93.8,40.4v-2.2h-5.5v-9.9h-2.5v12.1H93.8z
				 M87.3,55.6L84.5,51c1.4-0.6,2.4-1.7,2.4-3.5c0-2.8-2-4-4.5-4h-4.5v12.1h2.5v-4.2H82l2.5,4.2H87.3z M84.2,40.4l-5.5-12.2h-0.2
				l-5.3,12.2h2.4l0.7-1.6h4.7l0.7,1.6H84.2z M75.4,51.2v-7.7h-2.5v7.6c0,1.8-0.8,2.4-2.4,2.4c-1.7,0-2.4-0.7-2.4-2.4v-7.6h-2.5v7.7
				c0,3.1,2.1,4.5,4.9,4.5C73.3,55.8,75.4,54.3,75.4,51.2z M72.3,40.4l-2.8-4.6c1.4-0.6,2.4-1.7,2.4-3.5c0-2.8-2-4-4.5-4h-4.5v12.1
				h2.5v-4.2h1.6l2.5,4.2H72.3z M63.5,55.6v-2.2h-5.8v-2.8h4.9v-2.1h-4.9v-2.8h5.5v-2.2h-8v12.1H63.5z M61,30.5v-2.2h-9.4v2.2h3.5
				v9.9h2.5v-9.9H61z M53.3,47.5c0-2.8-2-4.1-4.5-4.1h-4.3v12.1h2.5v-4h1.8C51.3,51.6,53.3,50.4,53.3,47.5z M51,103.4
				c0.1,0,0.2-0.4,0.1-0.8L48.4,82c-0.1-0.4-0.6-2.6-1.2-2.4c-0.6,0.1-0.3,2.3-0.3,2.7l3.7,20.3C50.7,103.1,50.9,103.4,51,103.4z
				 M49.8,40.5V28.3h-2.3v5.1c0,0.8,0.2,2.2,0.2,2.2s-0.8-1.1-1.4-1.7l-6.1-5.7h-0.2v12.2h2.3v-5.1c0-0.9-0.2-2.2-0.2-2.2
				s0.8,1.1,1.4,1.7l6.1,5.7H49.8z M42.9,55.6l-5.5-12.2h-0.2l-5.3,12.2h2.4l0.7-1.6h4.7l0.7,1.6H42.9z M37.5,40.4v-2.2h-5.8v-2.8
				h4.9v-2.1h-4.9v-2.8h5.5v-2.2h-8v12.1H37.5z M28.1,55.7l5.3-12.2H31l-2,4.7c-0.5,1-0.9,2.7-0.9,2.7c-0.1-0.2-0.5-1.8-1-2.7
				L25,43.5h-2.7l5.5,12.2H28.1z M27.4,37.9l-2-1.3c-0.7,1-1.5,1.8-3.1,1.8c-2.2,0-3.7-1.7-3.7-4c0-2.3,1.5-4,3.7-4
				c1.4,0,2.4,0.7,2.9,1.6l1.9-1.4c-1.1-1.7-2.6-2.5-4.8-2.5c-3.5,0-6.2,2.6-6.2,6.2s2.8,6.2,6.2,6.2C24.7,40.6,26.4,39.6,27.4,37.9
				z"/>
			<path class="st0" d="M85.1,102l-16.4,16.4l-0.7-0.7c0.8-1.8-1.3-5.1-6.4-6.2c-0.1,0-0.2-0.1-0.3-0.1l9.5-23.6L85.1,102z"/>
			<path class="st0" d="M84.3,47.5c0,1.3-0.8,1.8-2,1.8h-1.9v-3.6h1.9C83.5,45.7,84.3,46.1,84.3,47.5z"/>
			<path class="st0" d="M79.2,34.9l0.8,1.8h-3l0.8-1.8c0.3-0.8,0.7-2.1,0.7-2.2C78.5,32.8,78.9,34.1,79.2,34.9z"/>
			<path class="st0" d="M69.3,32.3c0,1.3-0.8,1.8-2,1.8h-1.9v-3.6h1.9C68.5,30.5,69.3,31,69.3,32.3z"/>
			<path class="st0" d="M68.7,118.3l-13.8,13.8L24.7,102l13.8-13.8l7.8,20.4c-4.5,2.5-5.4,8.2-5.4,8.3l14,14L68,117.7L68.7,118.3z"
				/>
			<path class="st0" d="M50.8,47.5c0,1.3-0.8,1.9-2,1.9h-1.7v-3.8h1.7C50,45.7,50.8,46.2,50.8,47.5z"/>
			<path class="st0" d="M38,50l0.8,1.8h-3l0.8-1.8c0.3-0.8,0.7-2.1,0.7-2.2C37.3,48,37.6,49.2,38,50z"/>
		</g>
		<g>
		</g>
	</g>
</g>
</svg>
